PathFileType	4	(X/Y/Z)	C:/Users/beibeiliu/ov580/test_trc/User3\sequence.14_training_dense_left.trc
DataRate	CameraRate	NumFrames	NumMarkers	Units	OrigDataRate	OrigDataStartFrame	OrigNumFrames
120	120	11	19	mm	120	53	79
Frame#	Time	ThumbCMC			ThumbMCP			ThumbIP			ThumbTip			IndexMCP			IndexPIP			IndexTip			MiddleMCP			MiddlePIP			MiddleTip			RingMCP			RingPIP			RingTip			PinkyMCP			PinkyPIP			PinkyTip			BackHand1			BackHand2			BackHand3	
		X0	Y0	Z0	X1	Y1	Z1	X2	Y2	Z2	X3	Y3	Z3	X4	Y4	Z4	X5	Y5	Z5	X6	Y6	Z6	X7	Y7	Z7	X8	Y8	Z8	X9	Y9	Z9	X10	Y10	Z10	X11	Y11	Z11	X12	Y12	Z12	X13	Y13	Z13	X14	Y14	Z14	X15	Y15	Z15	X16	Y16	Z16	X17	Y17	Z17	X18	Y18	Z18	
52	0.433333	-284.515	-67.504	39.1825	-282.326	-60.5271	5.736	-280.701	-72.4041	-30.7065	-266.648	-94.0154	-39.5036	-328.653	-106.914	-7.64762	-340.949	-107.327	-33.4037	-345.707	-106.2	-61.4067	-320.859	-128.127	-15.765	-330.343	-125.998	-40.0937	-329.863	-119.916	-75.6266	-293.958	-136.282	-12.4225	-287.243	-125.29	-42.1223	-262.837	-102.587	-33.92	-275.834	-146.459	0.451965	-283.06	-152.75	-25.3787	-281.086	-151.541	-52.6624	-283.907	-128.114	39.0194	-268.047	-123.537	68.2816	-300.971	-101.116	51.9649	
53	0.441667	-259.291	-56.6157	37.2351	-261.454	-61.4536	-1.90759	-266.64	-76.7424	-30.5416	-270.176	-102.179	-33.8535	-324.591	-68.654	-2.78642	-336.731	-65.3401	-30.2637	-341.594	-64.7174	-53.705	-332.297	-87.3218	-6.27769	-342.761	-89.483	-34.0807	-342.827	-93.3577	-66.176	-319.255	-108.836	-2.3422	-310.335	-117.122	-29.8755	-278.36	-112.309	-31.7746	-309.032	-126.421	15.633	-321.219	-130.847	-8.18648	-322.197	-135.408	-33.0023	-298.884	-107.633	54.2969	-282.877	-104.547	75.4967	-294.319	-70.5059	55.0495	
54	0.45	-238.34	-57.5248	30.8095	-239.88	-64.9296	-1.78994	-254.814	-76.598	-29.8435	-273.077	-95.46	-30.8816	-296.969	-32.5987	-6.77762	-305.792	-23.7303	-35.914	-309.833	-22.1742	-56.8453	-317.78	-48.1321	-3.85233	-326.045	-42.9077	-34.7755	-330.326	-47.3059	-66.9402	-319.238	-72.8879	1.7317	-316.809	-86.3574	-27.829	-288.686	-98.9647	-29.3864	-321.648	-88.3917	18.3845	-335.219	-88.6486	-1.48912	-339.373	-93.1582	-26.226	-298.077	-73.9446	53.7567	-280.065	-83.1894	76.6254	-269.395	-50.1876	52.7653	
55	0.458333	-223.033	-57.7995	28.2893	-225.108	-61.6061	-8.75351	-244.188	-67.9025	-30.8243	-269.577	-78.4061	-38.0499	-264.378	-10.9809	-10.9588	-267.111	0.354943	-39.0683	-270.213	6.90598	-63.0941	-287.565	-15.3151	-10.8044	-294.197	-7.04232	-40.8363	-301.776	-11.5152	-69.4677	-298.483	-36.9807	-4.06539	-302.692	-53.3506	-36.1527	-282.967	-76.4033	-34.9059	-312.118	-53.4438	13.9595	-323.488	-47.246	-4.34289	-336.992	-50.2482	-31.6341	-280.511	-46.8945	46.2998	-269.768	-58.4734	68.7584	-248.438	-36.841	51.1166	
56	0.466667	-206.574	-48.5733	19.772	-206.675	-53.2313	-16.0016	-225.411	-55.4399	-42.2814	-251.681	-61.2839	-47.1348	-234.139	5.70765	-21.9783	-232.171	16.1061	-47.0342	-232.405	23.5596	-69.7124	-260.802	4.96333	-23.6025	-266.021	11.4026	-53.1416	-271.898	8.78546	-84.972	-276.465	-16.215	-16.5036	-280.449	-32.6267	-46.915	-262.276	-59.0059	-41.6243	-290.03	-29.3863	2.88433	-302.882	-19.9095	-14.785	-317.543	-16.3136	-39.2295	-268.287	-25.325	33.786	-258.955	-41.8583	62.2353	-229.434	-23.6063	37.5374	
57	0.475	-191.102	-41.4417	14.854	-189.407	-45.3613	-20.506	-210.782	-45.3541	-47.0578	-233.82	-48.1192	-51.2134	-209.689	15.7995	-37.0166	-209.308	25.5721	-60.8163	-206.657	32.2014	-85.3971	-237.617	17.6845	-36.7549	-239.549	23.4296	-62.3835	-243.866	21.4538	-99.85	-254.721	-0.0812833	-35.308	-257.017	-17.5866	-60.8881	-246.544	-45.4863	-52.9348	-272.498	-10.3361	-11.0294	-285.949	0.416747	-30.7461	-296.175	6.84446	-49.4288	-248.253	-11.4932	22.1627	-239.209	-22.6092	47.9715	-212.172	-11.523	29.2584	
58	0.483333	-172.996	-34.0627	5.45511	-175.276	-40.9163	-29.2834	-191.433	-43.2721	-54.9302	-220.321	-42.4223	-59.9835	-192.168	19.2316	-47.7285	-189.66	27.5576	-73.4101	-188.2	33.3396	-102.896	-219.036	22.4418	-48.8526	-220.219	28.1961	-82.0847	-222.816	26.6546	-114.113	-238.026	7.083	-44.7718	-242.13	-12.5654	-71.3706	-232.971	-40.0006	-62.9355	-256.574	1.67969	-23.5204	-264.762	11.1636	-42.4185	-276.467	17.7206	-65.6636	-227.906	3.18679	7.11828	-226.174	-10.1772	37.4991	-196.973	-0.160399	16.0871	
59	0.491667	-161.375	-31.8907	-1.7138	-164.251	-42.916	-36.1871	-182	-47.3722	-60.9811	-210.056	-45.5765	-62.5463	-176.606	16.1964	-66.1369	-171.807	19.3577	-92.7325	-174.788	20.9271	-113.798	-206.343	21.2351	-66.3212	-205.217	22.7168	-92.695	-212.041	17.9317	-124.972	-226.19	6.31948	-60.3395	-228.431	-16.4488	-82.2713	-221.997	-45.9812	-66.3477	-242.676	2.03382	-34.6024	-254.237	12.2824	-59.0533	-260.81	14.1264	-77.6334	-219.52	6.75388	-0.121964	-215.502	0.152835	26.3807	-180.526	4.59702	3.53344	
60	0.5	-149.763	-29.2715	-6.46593	-152.688	-44.6963	-38.6113	-172.986	-53.2287	-66.7653	-197.931	-50.9655	-65.0116	-167.626	8.44895	-70.7422	-164.369	10.1615	-98.9154	-164.33	9.22829	-128.129	-190.065	14.4599	-75.7631	-193.652	13.1473	-101.829	-194.094	6.79724	-138.068	-214.361	1.06021	-67.8081	-219.935	-23.3784	-87.6889	-210.248	-49.6925	-73.5088	-229.394	-0.0815208	-44.873	-241.566	5.59559	-65.5463	-250.498	9.17327	-86.2786	-205.602	8.98846	-14.2495	-201.368	3.46556	18.7467	-174.68	5.33911	-4.59042	
61	0.508333	-136.671	-30.7789	-9.76331	-138.524	-51.2962	-39.7212	-157.357	-62.5119	-63.4561	-187.85	-60.8266	-66.8255	-156.587	1.23371	-76.5069	-151.707	-0.347418	-105.295	-146.466	-4.59113	-130.568	-178.206	5.22537	-83.0801	-181.137	1.34715	-111.262	-181.055	-7.19121	-142.005	-203.521	-7.14454	-70.5176	-204.677	-31.8038	-91.047	-198.869	-58.965	-70.8163	-220.402	-4.67184	-50.3241	-227.639	-1.92465	-72.4447	-233.682	-2.82756	-93.5634	-194.89	5.61252	-19.7235	-190.056	3.54199	10.3237	-156.237	5.85274	-8.43915	
62	0.516667	-122.943	-35.438	-8.50608	-126.388	-57.8573	-39.8977	-143.808	-69.6934	-58.3141	-174.046	-67.0234	-62.5071	-139.02	-8.67522	-82.2823	-134.197	-12.5181	-106.308	-134.078	-20.0741	-134.323	-162.55	-4.211	-83.9896	-162.245	-10.2965	-114.814	-167.582	-19.8088	-142.605	-187.368	-15.752	-74.9544	-188.728	-39.9907	-92.625	-183.004	-67.5701	-69.7511	-203.378	-11.7268	-52.1856	-212.786	-10.6738	-74.5703	-221.255	-12.2538	-97.763	-176.128	2.84876	-18.3637	-172.507	1.54499	7.87193	-143.211	0.540123	-12.4352	
